<mxfile host="app.diagrams.net" modified="2024-07-12T14:52:16.728Z" agent="Mozilla/5.0 (X11; Linux x86_64; rv:129.0) Gecko/20100101 Firefox/129.0" etag="XNwhkgiiz4f27BjuFK79" version="24.6.5" type="github">
  <diagram id="C5RBs43oDa-KdzZeNtuy" name="Page-1">
    <mxGraphModel dx="1281" dy="245" grid="1" gridSize="10" guides="1" tooltips="1" connect="1" arrows="1" fold="1" page="1" pageScale="1" pageWidth="827" pageHeight="1169" math="0" shadow="0">
      <root>
        <mxCell id="WIyWlLk6GJQsqaUBKTNV-0" />
        <mxCell id="WIyWlLk6GJQsqaUBKTNV-1" parent="WIyWlLk6GJQsqaUBKTNV-0" />
        <mxCell id="WIyWlLk6GJQsqaUBKTNV-2" value="" style="rounded=0;html=1;jettySize=auto;orthogonalLoop=1;fontSize=11;endArrow=block;endFill=0;endSize=8;strokeWidth=1;shadow=0;labelBackgroundColor=none;edgeStyle=orthogonalEdgeStyle;" parent="WIyWlLk6GJQsqaUBKTNV-1" source="WIyWlLk6GJQsqaUBKTNV-3" target="WIyWlLk6GJQsqaUBKTNV-6" edge="1">
          <mxGeometry relative="1" as="geometry" />
        </mxCell>
        <mxCell id="WIyWlLk6GJQsqaUBKTNV-3" value="&lt;div&gt;Startup&lt;/div&gt;" style="rounded=1;whiteSpace=wrap;html=1;fontSize=12;glass=0;strokeWidth=1;shadow=0;" parent="WIyWlLk6GJQsqaUBKTNV-1" vertex="1">
          <mxGeometry x="230" y="85" width="120" height="40" as="geometry" />
        </mxCell>
        <mxCell id="WIyWlLk6GJQsqaUBKTNV-4" value="No" style="rounded=0;html=1;jettySize=auto;orthogonalLoop=1;fontSize=11;endArrow=block;endFill=0;endSize=8;strokeWidth=1;shadow=0;labelBackgroundColor=none;edgeStyle=orthogonalEdgeStyle;" parent="WIyWlLk6GJQsqaUBKTNV-1" source="WIyWlLk6GJQsqaUBKTNV-6" target="WIyWlLk6GJQsqaUBKTNV-10" edge="1">
          <mxGeometry y="20" relative="1" as="geometry">
            <mxPoint as="offset" />
            <Array as="points">
              <mxPoint x="290" y="255" />
            </Array>
          </mxGeometry>
        </mxCell>
        <mxCell id="WIyWlLk6GJQsqaUBKTNV-5" value="Yes" style="edgeStyle=orthogonalEdgeStyle;rounded=0;html=1;jettySize=auto;orthogonalLoop=1;fontSize=11;endArrow=block;endFill=0;endSize=8;strokeWidth=1;shadow=0;labelBackgroundColor=none;" parent="WIyWlLk6GJQsqaUBKTNV-1" source="WIyWlLk6GJQsqaUBKTNV-6" target="WIyWlLk6GJQsqaUBKTNV-7" edge="1">
          <mxGeometry y="10" relative="1" as="geometry">
            <mxPoint as="offset" />
          </mxGeometry>
        </mxCell>
        <mxCell id="WIyWlLk6GJQsqaUBKTNV-6" value="&lt;div&gt;First startup?&lt;/div&gt;&lt;div&gt;(integrity check)&lt;br&gt;&lt;/div&gt;" style="rhombus;whiteSpace=wrap;html=1;shadow=0;fontFamily=Helvetica;fontSize=12;align=center;strokeWidth=1;spacing=6;spacingTop=-4;fillColor=#d5e8d4;strokeColor=#82b366;" parent="WIyWlLk6GJQsqaUBKTNV-1" vertex="1">
          <mxGeometry x="235" y="165" width="110" height="90" as="geometry" />
        </mxCell>
        <mxCell id="WIyWlLk6GJQsqaUBKTNV-7" value="&lt;div&gt;create_tables()&lt;/div&gt;" style="rounded=1;whiteSpace=wrap;html=1;fontSize=12;glass=0;strokeWidth=1;shadow=0;fillColor=#d5e8d4;strokeColor=#82b366;" parent="WIyWlLk6GJQsqaUBKTNV-1" vertex="1">
          <mxGeometry x="450" y="135" width="120" height="40" as="geometry" />
        </mxCell>
        <mxCell id="_sAX4Jh3mrH07cV2HzHf-7" style="edgeStyle=orthogonalEdgeStyle;rounded=0;orthogonalLoop=1;jettySize=auto;html=1;exitX=0;exitY=0.5;exitDx=0;exitDy=0;" parent="WIyWlLk6GJQsqaUBKTNV-1" source="WIyWlLk6GJQsqaUBKTNV-10" edge="1">
          <mxGeometry relative="1" as="geometry">
            <mxPoint x="150" y="405" as="targetPoint" />
          </mxGeometry>
        </mxCell>
        <mxCell id="_sAX4Jh3mrH07cV2HzHf-8" value="neuer server" style="edgeLabel;html=1;align=center;verticalAlign=middle;resizable=0;points=[];" parent="_sAX4Jh3mrH07cV2HzHf-7" vertex="1" connectable="0">
          <mxGeometry x="-0.0487" relative="1" as="geometry">
            <mxPoint x="36" as="offset" />
          </mxGeometry>
        </mxCell>
        <mxCell id="_sAX4Jh3mrH07cV2HzHf-10" style="edgeStyle=orthogonalEdgeStyle;rounded=0;orthogonalLoop=1;jettySize=auto;html=1;exitX=0.5;exitY=1;exitDx=0;exitDy=0;entryX=0.5;entryY=0;entryDx=0;entryDy=0;" parent="WIyWlLk6GJQsqaUBKTNV-1" source="WIyWlLk6GJQsqaUBKTNV-10" target="_sAX4Jh3mrH07cV2HzHf-12" edge="1">
          <mxGeometry relative="1" as="geometry">
            <mxPoint x="289.9999999999999" y="405" as="targetPoint" />
          </mxGeometry>
        </mxCell>
        <mxCell id="_sAX4Jh3mrH07cV2HzHf-13" value="neuer spieler" style="edgeLabel;html=1;align=center;verticalAlign=middle;resizable=0;points=[];" parent="_sAX4Jh3mrH07cV2HzHf-10" vertex="1" connectable="0">
          <mxGeometry x="-0.5587" y="1" relative="1" as="geometry">
            <mxPoint as="offset" />
          </mxGeometry>
        </mxCell>
        <mxCell id="_sAX4Jh3mrH07cV2HzHf-14" style="edgeStyle=orthogonalEdgeStyle;rounded=0;orthogonalLoop=1;jettySize=auto;html=1;exitX=1;exitY=1;exitDx=0;exitDy=0;entryX=1.017;entryY=0.633;entryDx=0;entryDy=0;entryPerimeter=0;" parent="WIyWlLk6GJQsqaUBKTNV-1" source="WIyWlLk6GJQsqaUBKTNV-10" target="_sAX4Jh3mrH07cV2HzHf-29" edge="1">
          <mxGeometry relative="1" as="geometry">
            <mxPoint x="470" y="575" as="targetPoint" />
            <Array as="points">
              <mxPoint x="400" y="355" />
              <mxPoint x="400" y="574" />
            </Array>
          </mxGeometry>
        </mxCell>
        <mxCell id="_sAX4Jh3mrH07cV2HzHf-15" value="bekannter Spieler" style="edgeLabel;html=1;align=center;verticalAlign=middle;resizable=0;points=[];" parent="_sAX4Jh3mrH07cV2HzHf-14" vertex="1" connectable="0">
          <mxGeometry x="-0.0435" y="1" relative="1" as="geometry">
            <mxPoint x="9" y="-64" as="offset" />
          </mxGeometry>
        </mxCell>
        <mxCell id="_sAX4Jh3mrH07cV2HzHf-30" style="edgeStyle=orthogonalEdgeStyle;rounded=0;orthogonalLoop=1;jettySize=auto;html=1;exitX=1;exitY=0.5;exitDx=0;exitDy=0;entryX=0.532;entryY=-0.098;entryDx=0;entryDy=0;entryPerimeter=0;" parent="WIyWlLk6GJQsqaUBKTNV-1" source="WIyWlLk6GJQsqaUBKTNV-10" target="_sAX4Jh3mrH07cV2HzHf-31" edge="1">
          <mxGeometry relative="1" as="geometry">
            <mxPoint x="550" y="375" as="targetPoint" />
            <Array as="points">
              <mxPoint x="490" y="335" />
            </Array>
          </mxGeometry>
        </mxCell>
        <mxCell id="_sAX4Jh3mrH07cV2HzHf-34" value="Prefix erstellt/geÃ¤ndert" style="edgeLabel;html=1;align=center;verticalAlign=middle;resizable=0;points=[];" parent="_sAX4Jh3mrH07cV2HzHf-30" vertex="1" connectable="0">
          <mxGeometry x="-0.4047" relative="1" as="geometry">
            <mxPoint as="offset" />
          </mxGeometry>
        </mxCell>
        <mxCell id="_sAX4Jh3mrH07cV2HzHf-42" style="edgeStyle=orthogonalEdgeStyle;rounded=0;orthogonalLoop=1;jettySize=auto;html=1;exitX=0;exitY=0;exitDx=0;exitDy=0;entryX=0.492;entryY=-0.121;entryDx=0;entryDy=0;entryPerimeter=0;" parent="WIyWlLk6GJQsqaUBKTNV-1" source="WIyWlLk6GJQsqaUBKTNV-10" target="_sAX4Jh3mrH07cV2HzHf-45" edge="1">
          <mxGeometry relative="1" as="geometry">
            <mxPoint x="50" y="440" as="targetPoint" />
          </mxGeometry>
        </mxCell>
        <mxCell id="_sAX4Jh3mrH07cV2HzHf-44" value="ban/unban" style="edgeLabel;html=1;align=center;verticalAlign=middle;resizable=0;points=[];" parent="_sAX4Jh3mrH07cV2HzHf-42" vertex="1" connectable="0">
          <mxGeometry x="-0.1851" y="1" relative="1" as="geometry">
            <mxPoint x="14" as="offset" />
          </mxGeometry>
        </mxCell>
        <mxCell id="WIyWlLk6GJQsqaUBKTNV-10" value="&lt;div&gt;wait for action&lt;/div&gt;" style="rhombus;whiteSpace=wrap;html=1;shadow=0;fontFamily=Helvetica;fontSize=12;align=center;strokeWidth=1;spacing=6;spacingTop=-4;" parent="WIyWlLk6GJQsqaUBKTNV-1" vertex="1">
          <mxGeometry x="240" y="295" width="100" height="80" as="geometry" />
        </mxCell>
        <mxCell id="_sAX4Jh3mrH07cV2HzHf-2" value="&lt;div&gt;Drop tables&lt;/div&gt;" style="shape=document;whiteSpace=wrap;html=1;boundedLbl=1;fillColor=#d5e8d4;strokeColor=#82b366;" parent="WIyWlLk6GJQsqaUBKTNV-1" vertex="1">
          <mxGeometry x="450" y="165" width="120" height="60" as="geometry" />
        </mxCell>
        <mxCell id="_sAX4Jh3mrH07cV2HzHf-3" value="run init query" style="shape=tape;whiteSpace=wrap;html=1;fillColor=#d5e8d4;strokeColor=#82b366;" parent="WIyWlLk6GJQsqaUBKTNV-1" vertex="1">
          <mxGeometry x="450" y="195" width="120" height="60" as="geometry" />
        </mxCell>
        <mxCell id="_sAX4Jh3mrH07cV2HzHf-9" value="register_new_server()" style="rounded=1;whiteSpace=wrap;html=1;fillColor=#d5e8d4;strokeColor=#82b366;" parent="WIyWlLk6GJQsqaUBKTNV-1" vertex="1">
          <mxGeometry x="90" y="405" width="120" height="30" as="geometry" />
        </mxCell>
        <mxCell id="_sAX4Jh3mrH07cV2HzHf-20" value="" style="edgeStyle=orthogonalEdgeStyle;rounded=0;orthogonalLoop=1;jettySize=auto;html=1;" parent="WIyWlLk6GJQsqaUBKTNV-1" source="_sAX4Jh3mrH07cV2HzHf-12" target="_sAX4Jh3mrH07cV2HzHf-19" edge="1">
          <mxGeometry relative="1" as="geometry" />
        </mxCell>
        <mxCell id="_sAX4Jh3mrH07cV2HzHf-12" value="add_new_player()" style="rounded=1;whiteSpace=wrap;html=1;fillColor=#d5e8d4;strokeColor=#82b366;" parent="WIyWlLk6GJQsqaUBKTNV-1" vertex="1">
          <mxGeometry x="230" y="405" width="120" height="30" as="geometry" />
        </mxCell>
        <mxCell id="_sAX4Jh3mrH07cV2HzHf-16" style="edgeStyle=orthogonalEdgeStyle;rounded=0;orthogonalLoop=1;jettySize=auto;html=1;exitX=0.5;exitY=1;exitDx=0;exitDy=0;" parent="WIyWlLk6GJQsqaUBKTNV-1" source="_sAX4Jh3mrH07cV2HzHf-12" target="_sAX4Jh3mrH07cV2HzHf-12" edge="1">
          <mxGeometry relative="1" as="geometry" />
        </mxCell>
        <mxCell id="_sAX4Jh3mrH07cV2HzHf-22" value="" style="edgeStyle=orthogonalEdgeStyle;rounded=0;orthogonalLoop=1;jettySize=auto;html=1;" parent="WIyWlLk6GJQsqaUBKTNV-1" source="_sAX4Jh3mrH07cV2HzHf-19" target="_sAX4Jh3mrH07cV2HzHf-21" edge="1">
          <mxGeometry relative="1" as="geometry" />
        </mxCell>
        <mxCell id="_sAX4Jh3mrH07cV2HzHf-19" value="init_player_server_info_table()" style="whiteSpace=wrap;html=1;rounded=1;fillColor=#d5e8d4;strokeColor=#82b366;" parent="WIyWlLk6GJQsqaUBKTNV-1" vertex="1">
          <mxGeometry x="205" y="455" width="170" height="30" as="geometry" />
        </mxCell>
        <mxCell id="_sAX4Jh3mrH07cV2HzHf-24" value="" style="edgeStyle=orthogonalEdgeStyle;rounded=0;orthogonalLoop=1;jettySize=auto;html=1;" parent="WIyWlLk6GJQsqaUBKTNV-1" source="_sAX4Jh3mrH07cV2HzHf-21" edge="1">
          <mxGeometry relative="1" as="geometry">
            <mxPoint x="289.9999999999999" y="555" as="targetPoint" />
          </mxGeometry>
        </mxCell>
        <mxCell id="_sAX4Jh3mrH07cV2HzHf-21" value="init_prefix_table()" style="whiteSpace=wrap;html=1;rounded=1;fillColor=#d5e8d4;strokeColor=#82b366;" parent="WIyWlLk6GJQsqaUBKTNV-1" vertex="1">
          <mxGeometry x="202.5" y="505" width="175" height="30" as="geometry" />
        </mxCell>
        <mxCell id="_sAX4Jh3mrH07cV2HzHf-29" value="update_action_table()" style="rounded=1;whiteSpace=wrap;html=1;" parent="WIyWlLk6GJQsqaUBKTNV-1" vertex="1">
          <mxGeometry x="210" y="555" width="160" height="30" as="geometry" />
        </mxCell>
        <mxCell id="_sAX4Jh3mrH07cV2HzHf-31" value="update_prefix_table()" style="rounded=0;whiteSpace=wrap;html=1;" parent="WIyWlLk6GJQsqaUBKTNV-1" vertex="1">
          <mxGeometry x="410" y="405" width="150" height="30" as="geometry" />
        </mxCell>
        <mxCell id="_sAX4Jh3mrH07cV2HzHf-37" value="" style="endArrow=classic;html=1;rounded=0;exitX=0.023;exitY=0.817;exitDx=0;exitDy=0;exitPerimeter=0;entryX=0.5;entryY=0;entryDx=0;entryDy=0;" parent="WIyWlLk6GJQsqaUBKTNV-1" source="_sAX4Jh3mrH07cV2HzHf-3" target="WIyWlLk6GJQsqaUBKTNV-10" edge="1">
          <mxGeometry width="50" height="50" relative="1" as="geometry">
            <mxPoint x="360" y="365" as="sourcePoint" />
            <mxPoint x="410" y="315" as="targetPoint" />
          </mxGeometry>
        </mxCell>
        <mxCell id="_sAX4Jh3mrH07cV2HzHf-38" value="" style="endArrow=classic;html=1;rounded=0;" parent="WIyWlLk6GJQsqaUBKTNV-1" source="WIyWlLk6GJQsqaUBKTNV-10" edge="1">
          <mxGeometry width="50" height="50" relative="1" as="geometry">
            <mxPoint x="340" y="315" as="sourcePoint" />
            <mxPoint x="655" y="405" as="targetPoint" />
            <Array as="points">
              <mxPoint x="350" y="285" />
              <mxPoint x="655" y="285" />
              <mxPoint x="655" y="405" />
            </Array>
          </mxGeometry>
        </mxCell>
        <mxCell id="_sAX4Jh3mrH07cV2HzHf-41" value="versuchter login" style="edgeLabel;html=1;align=center;verticalAlign=middle;resizable=0;points=[];" parent="_sAX4Jh3mrH07cV2HzHf-38" vertex="1" connectable="0">
          <mxGeometry x="-0.5194" relative="1" as="geometry">
            <mxPoint as="offset" />
          </mxGeometry>
        </mxCell>
        <mxCell id="_sAX4Jh3mrH07cV2HzHf-40" value="&lt;div&gt;generate_login_pin()&lt;/div&gt;" style="rounded=0;whiteSpace=wrap;html=1;" parent="WIyWlLk6GJQsqaUBKTNV-1" vertex="1">
          <mxGeometry x="570" y="405" width="150" height="30" as="geometry" />
        </mxCell>
        <mxCell id="_sAX4Jh3mrH07cV2HzHf-45" value="update_ban_table()" style="rounded=1;whiteSpace=wrap;html=1;" parent="WIyWlLk6GJQsqaUBKTNV-1" vertex="1">
          <mxGeometry x="-50" y="405" width="120" height="30" as="geometry" />
        </mxCell>
      </root>
    </mxGraphModel>
  </diagram>
</mxfile>
